# xmcd
#
# Track frame offsets:
#	150
#	15155
#	35557
#	45060
#	61550
#	76850
#	90207
#	105480
#	117185
#	131085
#	144122
#	156937
#	173160
#	186957
#	199822
#
# Disc length: 2854 seconds
#
# Revision: 0
# Processed by: cddbd v1.4PL0 Copyright (c) Steve Scherf et al.
# Submitted via: dBpowerAMP V4.0
#
DISCID=a70b240f
DTITLE=Jorge Falcon - MIS 30 MEJORES CANCIONES cd2
DYEAR=1900
DGENRE=Tango
TTITLE0=AZUCAR PIMINENTA Y SAL
TTITLE1=Y AHORA QUE HARÉ
TTITLE2=ZORZAL
TTITLE3=NO SUEÑES MAS
TTITLE4=UN INFIERNO
TTITLE5=ASI BAILABAN MIS ABUELOS
TTITLE6=Y PORQUE TE QUIERO TANTO
TTITLE7=MEJOR TERMINAR ASI
TTITLE8=DESPUES SI QUERES HABLA
TTITLE9=NO FALTA MUCHO
TTITLE10=SOLO DIOS SABE PORQUE
TTITLE11=Y PENSAR QUE NO ESTÁS
TTITLE12=UNA NOCHE MENOS Y UNA NOCHE MAS
TTITLE13=INOLVIABLE
TTITLE14=NUESTRA HUISTOIRIETA TERMINÓ
EXTD=
EXTT0=
EXTT1=
EXTT2=
EXTT3=
EXTT4=
EXTT5=
EXTT6=
EXTT7=
EXTT8=
EXTT9=
EXTT10=
EXTT11=
EXTT12=
EXTT13=
EXTT14=
PLAYORDER=
